# xmcd CD database file
#
# Track frame offsets:
#	150
#	16187
#	30537
#
# Disc length: 659 seconds
#
# Revision: 0
# Processed by: cddbd v1.4PL0 Copyright (c) Steve Scherf et al.
# Submitted via: CDex 1.40Release
#
DISCID=15029103
DTITLE=Texas Tornados - Little Bit Is Better Than Nada
DYEAR=1996
DGENRE=Country
TTITLE0=Little Bit Is Better Than Nada
TTITLE1=Amor De Mi vida
TTITLE2=Haley's Comet
EXTD=YEAR: 1996 ID3G: 2
EXTT0=
EXTT1=
EXTT2=
PLAYORDER=
